<svg width="1080" height="608" viewBox="0 0 1080 608" fill="none" xmlns="http://www.w3.org/2000/svg">
<rect x="354" y="158" width="370" height="100" fill="#444444"/>
<g filter="url(#filter0_d_141_125)">
<path d="M395.86 214.46C395.86 215.44 393.667 215.93 389.28 215.93C384.893 215.93 382.513 215.58 382.14 214.88L370.45 193.04V214.81C370.45 215.65 368.28 216.07 363.94 216.07C359.647 216.07 357.5 215.65 357.5 214.81V167.98C357.5 167.28 359.343 166.93 363.03 166.93C364.477 166.93 366.157 167.07 368.07 167.35C370.03 167.583 371.22 168.05 371.64 168.75L382.84 190.31V168.33C382.84 167.443 385.01 167 389.35 167C393.69 167 395.86 167.443 395.86 168.33V214.46ZM429.001 214.11C426.061 215.837 422.281 216.7 417.661 216.7C413.041 216.7 409.144 215.137 405.971 212.01C402.797 208.837 401.211 204.473 401.211 198.92C401.211 193.32 402.727 188.817 405.761 185.41C408.841 182.003 412.714 180.3 417.381 180.3C422.047 180.3 425.641 181.49 428.161 183.87C430.727 186.25 432.011 189.143 432.011 192.55C432.011 200.11 427.671 203.89 418.991 203.89H414.161C414.161 205.29 414.534 206.27 415.281 206.83C416.074 207.343 417.217 207.6 418.711 207.6C421.977 207.6 425.081 206.853 428.021 205.36C428.067 205.313 428.277 205.64 428.651 206.34C429.771 208.347 430.331 210.05 430.331 211.45C430.331 212.803 429.887 213.69 429.001 214.11ZM420.251 193.88C420.251 191.92 419.294 190.94 417.381 190.94C416.494 190.94 415.724 191.22 415.071 191.78C414.464 192.293 414.161 193.063 414.161 194.09V196.26H417.941C419.481 196.26 420.251 195.467 420.251 193.88ZM472.914 181.35C472.914 180.93 474.197 180.72 476.764 180.72C482.55 180.72 485.397 180.907 485.304 181.28L478.444 215.3C478.304 216.047 475.714 216.42 470.674 216.42C465.634 216.42 463.044 216.047 462.904 215.3L460.034 199.62L456.464 215.3C456.324 216 453.64 216.35 448.414 216.35C443.234 216.35 440.574 215.93 440.434 215.09L434.204 181C434.064 180.72 436.07 180.58 440.224 180.58C444.33 180.627 446.384 180.72 446.384 180.86L449.604 204.52L455.414 181.14C455.507 180.86 457.047 180.72 460.034 180.72C463.02 180.72 464.56 180.86 464.654 181.14L470.394 204.24L472.914 181.35ZM516.134 215.02C516.134 215.767 513.917 216.14 509.484 216.14C505.004 216.14 502.764 215.79 502.764 215.09V169.45C502.764 167.817 503.627 167 505.354 167H518.724C530.997 167 537.134 171.783 537.134 181.35C537.134 184.243 536.574 186.88 535.454 189.26C534.334 191.593 532.747 193.46 530.694 194.86L539.514 209.56C539.14 210.68 537.927 211.963 535.874 213.41C533.074 215.417 530.764 216.42 528.944 216.42C527.124 216.42 525.77 215.767 524.884 214.46L518.304 199.13H516.134V215.02ZM516.134 179.39V189.89H516.484C520.917 189.89 523.134 188.047 523.134 184.36C523.134 182.68 522.69 181.443 521.804 180.65C520.964 179.81 519.564 179.39 517.604 179.39H516.134ZM570.163 214.11C567.223 215.837 563.443 216.7 558.823 216.7C554.203 216.7 550.306 215.137 547.133 212.01C543.959 208.837 542.373 204.473 542.373 198.92C542.373 193.32 543.889 188.817 546.923 185.41C550.003 182.003 553.876 180.3 558.543 180.3C563.209 180.3 566.803 181.49 569.323 183.87C571.889 186.25 573.173 189.143 573.173 192.55C573.173 200.11 568.833 203.89 560.153 203.89H555.323C555.323 205.29 555.696 206.27 556.443 206.83C557.236 207.343 558.379 207.6 559.873 207.6C563.139 207.6 566.243 206.853 569.183 205.36C569.229 205.313 569.439 205.64 569.813 206.34C570.933 208.347 571.493 210.05 571.493 211.45C571.493 212.803 571.049 213.69 570.163 214.11ZM561.413 193.88C561.413 191.92 560.456 190.94 558.543 190.94C557.656 190.94 556.886 191.22 556.233 191.78C555.626 192.293 555.323 193.063 555.323 194.09V196.26H559.103C560.643 196.26 561.413 195.467 561.413 193.88ZM589.226 198.64C589.226 203.213 590.952 205.5 594.406 205.5C596.646 205.5 598.512 205.057 600.006 204.17C600.706 204.17 601.266 205.383 601.686 207.81C602.152 210.19 602.386 211.823 602.386 212.71C602.386 213.55 602.269 214.11 602.036 214.39C599.562 215.93 596.179 216.7 591.886 216.7C587.592 216.7 583.929 215.113 580.896 211.94C577.909 208.72 576.416 204.357 576.416 198.85C576.416 193.297 577.886 188.817 580.826 185.41C583.812 182.003 587.756 180.3 592.656 180.3C597.602 180.3 601.032 181.49 602.946 183.87C603.366 184.383 603.576 185.153 603.576 186.18C603.576 187.16 603.389 188.373 603.016 189.82C602.176 192.807 601.079 194.533 599.726 195C599.539 195.047 599.259 195.07 598.886 195.07C598.559 195.07 598.139 194.79 597.626 194.23C595.806 192.41 594.336 191.5 593.216 191.5C592.142 191.5 591.209 192.06 590.416 193.18C589.622 194.3 589.226 196.12 589.226 198.64ZM610.424 211.87C607.53 208.65 606.084 204.193 606.084 198.5C606.084 192.807 607.53 188.35 610.424 185.13C613.364 181.91 617.307 180.3 622.254 180.3C627.2 180.3 631.12 181.91 634.014 185.13C636.907 188.35 638.354 192.807 638.354 198.5C638.354 204.193 636.907 208.65 634.014 211.87C631.12 215.09 627.2 216.7 622.254 216.7C617.307 216.7 613.364 215.09 610.424 211.87ZM622.254 191.99C619.64 191.99 618.334 194.137 618.334 198.43C618.334 202.723 619.64 204.87 622.254 204.87C624.914 204.87 626.244 202.723 626.244 198.43C626.244 194.137 624.914 191.99 622.254 191.99ZM658.632 215.93C658.632 216.257 656.509 216.42 652.262 216.42C648.016 216.327 645.892 216.14 645.892 215.86V192.62H644.002C643.256 192.62 642.649 192.177 642.182 191.29C641.762 190.357 641.552 189.213 641.552 187.86C641.552 182.82 643.046 180.3 646.032 180.3C648.132 180.3 649.882 180.953 651.282 182.26C652.682 183.52 653.382 184.967 653.382 186.6C654.362 184.687 655.669 183.17 657.302 182.05C658.982 180.883 660.686 180.3 662.412 180.3C665.119 180.3 666.752 181 667.312 182.4C667.452 182.773 667.522 183.333 667.522 184.08C667.522 184.78 667.289 186.063 666.822 187.93C666.402 189.797 665.959 191.15 665.492 191.99C665.026 192.83 664.746 193.25 664.652 193.25C664.559 193.25 664.116 193.087 663.322 192.76C662.576 192.387 661.899 192.2 661.292 192.2C659.519 192.2 658.632 193.6 658.632 196.4V215.93ZM688.766 167.42C688.766 166.72 690.61 166.37 694.296 166.37C695.556 166.37 697.003 166.463 698.636 166.65C700.316 166.79 701.156 167 701.156 167.28V204.17H703.606C704.773 204.17 705.543 205.22 705.916 207.32C706.01 207.927 706.056 208.767 706.056 209.84C706.056 210.867 705.73 212.127 705.076 213.62C704.143 215.673 702.65 216.7 700.596 216.7C699.056 216.7 697.68 216.397 696.466 215.79C695.3 215.183 694.506 214.553 694.086 213.9L693.456 212.99C690.89 215.463 687.67 216.7 683.796 216.7C679.923 216.7 676.61 215.09 673.856 211.87C671.103 208.65 669.726 204.17 669.726 198.43C669.726 192.643 671.173 188.187 674.066 185.06C676.96 181.887 680.576 180.3 684.916 180.3C686.176 180.3 687.46 180.44 688.766 180.72V167.42ZM686.456 191.5C683.843 191.5 682.536 193.857 682.536 198.57C682.536 200.95 682.91 202.677 683.656 203.75C684.403 204.777 685.22 205.29 686.106 205.29C687.04 205.29 687.926 204.893 688.766 204.1V192.2C687.973 191.733 687.203 191.5 686.456 191.5ZM722.186 201.3C722.186 201.58 720.506 201.72 717.146 201.72C713.833 201.72 712.176 201.603 712.176 201.37L710.776 166.86C710.776 166.487 712.9 166.3 717.146 166.3C721.44 166.3 723.586 166.463 723.586 166.79L722.186 201.3ZM710.636 205.5C710.636 205.173 712.783 205.01 717.076 205.01C721.416 205.01 723.586 205.15 723.586 205.43V215.51C723.586 215.977 721.416 216.21 717.076 216.21C712.783 216.21 710.636 216.07 710.636 215.79V205.5Z" fill="#E1F407"/>
</g>
<defs>
<filter id="filter0_d_141_125" x="357.5" y="166.3" width="376.086" height="60.4" filterUnits="userSpaceOnUse" color-interpolation-filters="sRGB">
<feFlood flood-opacity="0" result="BackgroundImageFix"/>
<feColorMatrix in="SourceAlpha" type="matrix" values="0 0 0 0 0 0 0 0 0 0 0 0 0 0 0 0 0 0 127 0" result="hardAlpha"/>
<feOffset dx="5" dy="5"/>
<feGaussianBlur stdDeviation="2.5"/>
<feComposite in2="hardAlpha" operator="out"/>
<feColorMatrix type="matrix" values="0 0 0 0 0 0 0 0 0 0 0 0 0 0 0 0 0 0 0.25 0"/>
<feBlend mode="normal" in2="BackgroundImageFix" result="effect1_dropShadow_141_125"/>
<feBlend mode="normal" in="SourceGraphic" in2="effect1_dropShadow_141_125" result="shape"/>
</filter>
</defs>
</svg>
