<svg width="1080" height="608" viewBox="0 0 1080 608" fill="none" xmlns="http://www.w3.org/2000/svg">
<rect width="1080" height="607.31" fill="#312929" fill-opacity="0.7"/>
<g filter="url(#filter0_d_133_167)">
<rect x="290" y="116" width="500" height="375" rx="75" fill="#F4C858"/>
<rect x="317" y="144" width="445" height="319" rx="50" fill="#444444"/>
<g filter="url(#filter1_d_133_167)">
<path d="M400.8 233.18C395.58 233.18 392.76 232.34 392.34 230.66L389.37 219.05H375.06L372.45 230.21C372.09 232.07 369.21 233 363.81 233C360.93 233 358.8 232.85 357.42 232.55C356.04 232.19 355.35 231.92 355.35 231.74L371.28 170.81C371.28 170.33 375.39 170.09 383.61 170.09C391.83 170.09 395.94 170.33 395.94 170.81L411.51 231.83C411.51 232.25 410.13 232.58 407.37 232.82C404.61 233.06 402.42 233.18 400.8 233.18ZM377.31 207.62H386.76L382.71 188.99H382.17L377.31 207.62ZM416.845 202.4C416.425 202.4 416.215 201.11 416.215 198.53C416.215 191.51 416.785 188 417.925 188H446.635C447.055 188 447.985 189.32 449.425 191.96C450.865 194.6 451.585 196.1 451.585 196.46C451.585 196.76 451.555 196.94 451.495 197L434.035 218.96L449.695 217.88C450.655 217.88 451.135 220.01 451.135 224.27C451.135 225.89 450.985 227.75 450.685 229.85C450.385 231.95 449.875 233 449.155 233H420.355C419.455 233 418.375 231.5 417.115 228.5C415.855 225.5 415.225 223.7 415.225 223.1C415.225 222.44 415.285 222.05 415.405 221.93L432.595 201.86L416.845 202.4ZM491.914 230.57C488.134 232.79 483.274 233.9 477.334 233.9C471.394 233.9 466.384 231.89 462.304 227.87C458.224 223.79 456.184 218.18 456.184 211.04C456.184 203.84 458.134 198.05 462.034 193.67C465.994 189.29 470.974 187.1 476.974 187.1C482.974 187.1 487.594 188.63 490.834 191.69C494.134 194.75 495.784 198.47 495.784 202.85C495.784 212.57 490.204 217.43 479.044 217.43H472.834C472.834 219.23 473.314 220.49 474.274 221.21C475.294 221.87 476.764 222.2 478.684 222.2C482.884 222.2 486.874 221.24 490.654 219.32C490.714 219.26 490.984 219.68 491.464 220.58C492.904 223.16 493.624 225.35 493.624 227.15C493.624 228.89 493.054 230.03 491.914 230.57ZM480.664 204.56C480.664 202.04 479.434 200.78 476.974 200.78C475.834 200.78 474.844 201.14 474.004 201.86C473.224 202.52 472.834 203.51 472.834 204.83V207.62H477.694C479.674 207.62 480.664 206.6 480.664 204.56ZM524.433 170.54C524.433 169.64 526.803 169.19 531.543 169.19C533.163 169.19 535.023 169.31 537.123 169.55C539.283 169.73 540.363 170 540.363 170.36V217.79H543.513C545.013 217.79 546.003 219.14 546.483 221.84C546.603 222.62 546.663 223.7 546.663 225.08C546.663 226.4 546.243 228.02 545.403 229.94C544.203 232.58 542.283 233.9 539.643 233.9C537.663 233.9 535.893 233.51 534.333 232.73C532.833 231.95 531.813 231.14 531.273 230.3L530.463 229.13C527.163 232.31 523.023 233.9 518.043 233.9C513.063 233.9 508.803 231.83 505.263 227.69C501.723 223.55 499.953 217.79 499.953 210.41C499.953 202.97 501.813 197.24 505.533 193.22C509.253 189.14 513.903 187.1 519.483 187.1C521.103 187.1 522.753 187.28 524.433 187.64V170.54ZM521.463 201.5C518.103 201.5 516.423 204.53 516.423 210.59C516.423 213.65 516.903 215.87 517.863 217.25C518.823 218.57 519.873 219.23 521.013 219.23C522.213 219.23 523.353 218.72 524.433 217.7V202.4C523.413 201.8 522.423 201.5 521.463 201.5ZM556.422 227.69C552.702 223.55 550.842 217.82 550.842 210.5C550.842 203.18 552.702 197.45 556.422 193.31C560.202 189.17 565.272 187.1 571.632 187.1C577.992 187.1 583.032 189.17 586.752 193.31C590.472 197.45 592.332 203.18 592.332 210.5C592.332 217.82 590.472 223.55 586.752 227.69C583.032 231.83 577.992 233.9 571.632 233.9C565.272 233.9 560.202 231.83 556.422 227.69ZM571.632 202.13C568.272 202.13 566.592 204.89 566.592 210.41C566.592 215.93 568.272 218.69 571.632 218.69C575.052 218.69 576.762 215.93 576.762 210.41C576.762 204.89 575.052 202.13 571.632 202.13ZM598.245 188.54C598.245 187.88 600.825 187.55 605.985 187.55C611.145 187.55 613.725 187.88 613.725 188.54V214.82C613.725 217.82 614.685 219.32 616.605 219.32C618.045 219.32 619.665 218.69 621.465 217.43V188.54C621.465 187.94 624.015 187.64 629.115 187.64C634.215 187.64 636.765 187.94 636.765 188.54V218.06H639.105C641.145 218.06 642.165 220.01 642.165 223.91C642.165 225.89 641.745 227.9 640.905 229.94C639.705 232.58 638.085 233.9 636.045 233.9C632.025 233.9 629.055 232.25 627.135 228.95L627.045 229.04C623.385 232.28 619.455 233.9 615.255 233.9C609.435 233.9 605.145 232.46 602.385 229.58C599.625 226.64 598.245 221.81 598.245 215.09V188.54ZM662.41 233.27C662.41 233.69 659.56 233.9 653.86 233.9C648.22 233.9 645.4 233.72 645.4 233.36V217.16C645.4 216.62 648.22 216.35 653.86 216.35C659.56 216.35 662.41 216.5 662.41 216.8V233.27ZM682.976 233.27C682.976 233.69 680.126 233.9 674.426 233.9C668.786 233.9 665.966 233.72 665.966 233.36V217.16C665.966 216.62 668.786 216.35 674.426 216.35C680.126 216.35 682.976 216.5 682.976 216.8V233.27Z" fill="#E35D4B"/>
</g>
<g filter="url(#filter2_d_133_167)">
<path d="M360.08 396.48C361.093 397.28 362.827 398.373 365.28 399.76C367.787 401.147 370.16 401.84 372.4 401.84C374.693 401.84 375.84 400.96 375.84 399.2C375.84 398.4 375.52 397.707 374.88 397.12C374.24 396.48 373.067 395.76 371.36 394.96C369.653 394.16 368.373 393.547 367.52 393.12C366.667 392.64 365.52 391.893 364.08 390.88C362.693 389.813 361.627 388.72 360.88 387.6C358.747 384.56 357.68 380.693 357.68 376C357.68 371.307 359.413 367.36 362.88 364.16C366.4 360.907 370.987 359.28 376.64 359.28C380.48 359.28 384.027 359.707 387.28 360.56C390.533 361.36 392.213 362.427 392.32 363.76C392.32 363.92 392.32 364.08 392.32 364.24C392.32 366.107 391.733 368.48 390.56 371.36C389.387 374.187 388.56 375.76 388.08 376.08C384.667 374.32 381.6 373.44 378.88 373.44C376.213 373.44 374.88 374.4 374.88 376.32C374.88 377.493 375.867 378.533 377.84 379.44C378.267 379.653 378.88 379.947 379.68 380.32C380.48 380.693 381.387 381.147 382.4 381.68C383.467 382.16 384.587 382.8 385.76 383.6C386.987 384.347 388.293 385.36 389.68 386.64C392.507 389.307 393.92 392.827 393.92 397.2C393.92 402.907 392.347 407.573 389.2 411.2C386.053 414.827 381.2 416.693 374.64 416.8C371.44 416.8 368.533 416.533 365.92 416C363.36 415.467 361.12 414.427 359.2 412.88C357.28 411.333 356.32 409.467 356.32 407.28C356.32 405.093 356.72 402.933 357.52 400.8C358.32 398.613 359.173 397.173 360.08 396.48ZM413.22 396.16C413.22 401.387 415.193 404 419.14 404C421.7 404 423.833 403.493 425.54 402.48C426.34 402.48 426.98 403.867 427.46 406.64C427.993 409.36 428.26 411.227 428.26 412.24C428.26 413.2 428.127 413.84 427.86 414.16C425.033 415.92 421.167 416.8 416.26 416.8C411.353 416.8 407.167 414.987 403.7 411.36C400.287 407.68 398.58 402.693 398.58 396.4C398.58 390.053 400.26 384.933 403.62 381.04C407.033 377.147 411.54 375.2 417.14 375.2C422.793 375.2 426.713 376.56 428.9 379.28C429.38 379.867 429.62 380.747 429.62 381.92C429.62 383.04 429.407 384.427 428.98 386.08C428.02 389.493 426.767 391.467 425.22 392C425.007 392.053 424.687 392.08 424.26 392.08C423.887 392.08 423.407 391.76 422.82 391.12C420.74 389.04 419.06 388 417.78 388C416.553 388 415.487 388.64 414.58 389.92C413.673 391.2 413.22 393.28 413.22 396.16ZM437.446 411.28C434.14 407.6 432.486 402.507 432.486 396C432.486 389.493 434.14 384.4 437.446 380.72C440.806 377.04 445.313 375.2 450.966 375.2C456.62 375.2 461.1 377.04 464.406 380.72C467.713 384.4 469.366 389.493 469.366 396C469.366 402.507 467.713 407.6 464.406 411.28C461.1 414.96 456.62 416.8 450.966 416.8C445.313 416.8 440.806 414.96 437.446 411.28ZM450.966 388.56C447.98 388.56 446.486 391.013 446.486 395.92C446.486 400.827 447.98 403.28 450.966 403.28C454.006 403.28 455.526 400.827 455.526 395.92C455.526 391.013 454.006 388.56 450.966 388.56ZM492.542 415.92C492.542 416.293 490.115 416.48 485.262 416.48C480.409 416.373 477.982 416.16 477.982 415.84V389.28H475.822C474.969 389.28 474.275 388.773 473.742 387.76C473.262 386.693 473.022 385.387 473.022 383.84C473.022 378.08 474.729 375.2 478.142 375.2C480.542 375.2 482.542 375.947 484.142 377.44C485.742 378.88 486.542 380.533 486.542 382.4C487.662 380.213 489.155 378.48 491.022 377.2C492.942 375.867 494.889 375.2 496.862 375.2C499.955 375.2 501.822 376 502.462 377.6C502.622 378.027 502.702 378.667 502.702 379.52C502.702 380.32 502.435 381.787 501.902 383.92C501.422 386.053 500.915 387.6 500.382 388.56C499.849 389.52 499.529 390 499.422 390C499.315 390 498.809 389.813 497.902 389.44C497.049 389.013 496.275 388.8 495.582 388.8C493.555 388.8 492.542 390.4 492.542 393.6V415.92ZM536.981 413.84C533.621 415.813 529.301 416.8 524.021 416.8C518.741 416.8 514.287 415.013 510.661 411.44C507.034 407.813 505.221 402.827 505.221 396.48C505.221 390.08 506.954 384.933 510.421 381.04C513.941 377.147 518.367 375.2 523.701 375.2C529.034 375.2 533.141 376.56 536.021 379.28C538.954 382 540.421 385.307 540.421 389.2C540.421 397.84 535.461 402.16 525.541 402.16H520.021C520.021 403.76 520.447 404.88 521.301 405.52C522.207 406.107 523.514 406.4 525.221 406.4C528.954 406.4 532.501 405.547 535.861 403.84C535.914 403.787 536.154 404.16 536.581 404.96C537.861 407.253 538.501 409.2 538.501 410.8C538.501 412.347 537.994 413.36 536.981 413.84ZM526.981 390.72C526.981 388.48 525.887 387.36 523.701 387.36C522.687 387.36 521.807 387.68 521.061 388.32C520.367 388.907 520.021 389.787 520.021 390.96V393.44H524.341C526.101 393.44 526.981 392.533 526.981 390.72Z" fill="#229054"/>
</g>
<g filter="url(#filter3_d_133_167)">
<path d="M363.64 310.44C363.64 310.867 362.373 311.08 359.84 311.08C357.28 311.08 356 310.88 356 310.48V284.4C356 283.467 356.493 283 357.48 283H365.12C372.133 283 375.64 285.733 375.64 291.2C375.64 292.853 375.32 294.36 374.68 295.72C374.04 297.053 373.133 298.12 371.96 298.92L377 307.32C376.787 307.96 376.093 308.693 374.92 309.52C373.32 310.667 372 311.24 370.96 311.24C369.92 311.24 369.147 310.867 368.64 310.12L364.88 301.36H363.64V310.44ZM363.64 290.08V296.08H363.84C366.373 296.08 367.64 295.027 367.64 292.92C367.64 291.96 367.387 291.253 366.88 290.8C366.4 290.32 365.6 290.08 364.48 290.08H363.64ZM394.514 309.92C392.834 310.907 390.674 311.4 388.034 311.4C385.394 311.4 383.167 310.507 381.354 308.72C379.54 306.907 378.634 304.413 378.634 301.24C378.634 298.04 379.5 295.467 381.234 293.52C382.994 291.573 385.207 290.6 387.874 290.6C390.54 290.6 392.594 291.28 394.034 292.64C395.5 294 396.234 295.653 396.234 297.6C396.234 301.92 393.754 304.08 388.794 304.08H386.034C386.034 304.88 386.247 305.44 386.674 305.76C387.127 306.053 387.78 306.2 388.634 306.2C390.5 306.2 392.274 305.773 393.954 304.92C393.98 304.893 394.1 305.08 394.314 305.48C394.954 306.627 395.274 307.6 395.274 308.4C395.274 309.173 395.02 309.68 394.514 309.92ZM389.514 298.36C389.514 297.24 388.967 296.68 387.874 296.68C387.367 296.68 386.927 296.84 386.554 297.16C386.207 297.453 386.034 297.893 386.034 298.48V299.72H388.194C389.074 299.72 389.514 299.267 389.514 298.36ZM405.407 301.08C405.407 303.693 406.394 305 408.367 305C409.647 305 410.714 304.747 411.567 304.24C411.967 304.24 412.287 304.933 412.527 306.32C412.794 307.68 412.927 308.613 412.927 309.12C412.927 309.6 412.86 309.92 412.727 310.08C411.314 310.96 409.38 311.4 406.927 311.4C404.474 311.4 402.38 310.493 400.647 308.68C398.94 306.84 398.087 304.347 398.087 301.2C398.087 298.027 398.927 295.467 400.607 293.52C402.314 291.573 404.567 290.6 407.367 290.6C410.194 290.6 412.154 291.28 413.247 292.64C413.487 292.933 413.607 293.373 413.607 293.96C413.607 294.52 413.5 295.213 413.287 296.04C412.807 297.747 412.18 298.733 411.407 299C411.3 299.027 411.14 299.04 410.927 299.04C410.74 299.04 410.5 298.88 410.207 298.56C409.167 297.52 408.327 297 407.687 297C407.074 297 406.54 297.32 406.087 297.96C405.634 298.6 405.407 299.64 405.407 301.08ZM417.52 308.64C415.867 306.8 415.04 304.253 415.04 301C415.04 297.747 415.867 295.2 417.52 293.36C419.2 291.52 421.453 290.6 424.28 290.6C427.107 290.6 429.347 291.52 431 293.36C432.653 295.2 433.48 297.747 433.48 301C433.48 304.253 432.653 306.8 431 308.64C429.347 310.48 427.107 311.4 424.28 311.4C421.453 311.4 419.2 310.48 417.52 308.64ZM424.28 297.28C422.787 297.28 422.04 298.507 422.04 300.96C422.04 303.413 422.787 304.64 424.28 304.64C425.8 304.64 426.56 303.413 426.56 300.96C426.56 298.507 425.8 297.28 424.28 297.28ZM445.068 310.96C445.068 311.147 443.854 311.24 441.428 311.24C439.001 311.187 437.788 311.08 437.788 310.92V297.64H436.708C436.281 297.64 435.934 297.387 435.668 296.88C435.428 296.347 435.308 295.693 435.308 294.92C435.308 292.04 436.161 290.6 437.868 290.6C439.068 290.6 440.068 290.973 440.868 291.72C441.668 292.44 442.068 293.267 442.068 294.2C442.628 293.107 443.374 292.24 444.308 291.6C445.268 290.933 446.241 290.6 447.228 290.6C448.774 290.6 449.708 291 450.028 291.8C450.108 292.013 450.148 292.333 450.148 292.76C450.148 293.16 450.014 293.893 449.748 294.96C449.508 296.027 449.254 296.8 448.988 297.28C448.721 297.76 448.561 298 448.508 298C448.454 298 448.201 297.907 447.748 297.72C447.321 297.507 446.934 297.4 446.588 297.4C445.574 297.4 445.068 298.2 445.068 299.8V310.96ZM462.287 283.24C462.287 282.84 463.341 282.64 465.447 282.64C466.167 282.64 466.994 282.693 467.927 282.8C468.887 282.88 469.367 283 469.367 283.16V304.24H470.767C471.434 304.24 471.874 304.84 472.087 306.04C472.141 306.387 472.167 306.867 472.167 307.48C472.167 308.067 471.981 308.787 471.607 309.64C471.074 310.813 470.221 311.4 469.047 311.4C468.167 311.4 467.381 311.227 466.687 310.88C466.021 310.533 465.567 310.173 465.327 309.8L464.967 309.28C463.501 310.693 461.661 311.4 459.447 311.4C457.234 311.4 455.341 310.48 453.767 308.64C452.194 306.8 451.407 304.24 451.407 300.96C451.407 297.653 452.234 295.107 453.887 293.32C455.541 291.507 457.607 290.6 460.087 290.6C460.807 290.6 461.541 290.68 462.287 290.84V283.24ZM460.967 297C459.474 297 458.727 298.347 458.727 301.04C458.727 302.4 458.941 303.387 459.367 304C459.794 304.587 460.261 304.88 460.767 304.88C461.301 304.88 461.807 304.653 462.287 304.2V297.4C461.834 297.133 461.394 297 460.967 297Z" fill="white"/>
</g>
</g>
<defs>
<filter id="filter0_d_133_167" x="290" y="116" width="515" height="390" filterUnits="userSpaceOnUse" color-interpolation-filters="sRGB">
<feFlood flood-opacity="0" result="BackgroundImageFix"/>
<feColorMatrix in="SourceAlpha" type="matrix" values="0 0 0 0 0 0 0 0 0 0 0 0 0 0 0 0 0 0 127 0" result="hardAlpha"/>
<feOffset dx="10" dy="10"/>
<feGaussianBlur stdDeviation="2.5"/>
<feComposite in2="hardAlpha" operator="out"/>
<feColorMatrix type="matrix" values="0 0 0 0 0 0 0 0 0 0 0 0 0 0 0 0 0 0 0.25 0"/>
<feBlend mode="normal" in2="BackgroundImageFix" result="effect1_dropShadow_133_167"/>
<feBlend mode="normal" in="SourceGraphic" in2="effect1_dropShadow_133_167" result="shape"/>
</filter>
<filter id="filter1_d_133_167" x="355.35" y="169.19" width="337.626" height="74.71" filterUnits="userSpaceOnUse" color-interpolation-filters="sRGB">
<feFlood flood-opacity="0" result="BackgroundImageFix"/>
<feColorMatrix in="SourceAlpha" type="matrix" values="0 0 0 0 0 0 0 0 0 0 0 0 0 0 0 0 0 0 127 0" result="hardAlpha"/>
<feOffset dx="5" dy="5"/>
<feGaussianBlur stdDeviation="2.5"/>
<feComposite in2="hardAlpha" operator="out"/>
<feColorMatrix type="matrix" values="0 0 0 0 0 0 0 0 0 0 0 0 0 0 0 0 0 0 0.25 0"/>
<feBlend mode="normal" in2="BackgroundImageFix" result="effect1_dropShadow_133_167"/>
<feBlend mode="normal" in="SourceGraphic" in2="effect1_dropShadow_133_167" result="shape"/>
</filter>
<filter id="filter2_d_133_167" x="356.32" y="359.28" width="194.101" height="67.52" filterUnits="userSpaceOnUse" color-interpolation-filters="sRGB">
<feFlood flood-opacity="0" result="BackgroundImageFix"/>
<feColorMatrix in="SourceAlpha" type="matrix" values="0 0 0 0 0 0 0 0 0 0 0 0 0 0 0 0 0 0 127 0" result="hardAlpha"/>
<feOffset dx="5" dy="5"/>
<feGaussianBlur stdDeviation="2.5"/>
<feComposite in2="hardAlpha" operator="out"/>
<feColorMatrix type="matrix" values="0 0 0 0 0 0 0 0 0 0 0 0 0 0 0 0 0 0 0.25 0"/>
<feBlend mode="normal" in2="BackgroundImageFix" result="effect1_dropShadow_133_167"/>
<feBlend mode="normal" in="SourceGraphic" in2="effect1_dropShadow_133_167" result="shape"/>
</filter>
<filter id="filter3_d_133_167" x="352" y="282.64" width="124.167" height="36.76" filterUnits="userSpaceOnUse" color-interpolation-filters="sRGB">
<feFlood flood-opacity="0" result="BackgroundImageFix"/>
<feColorMatrix in="SourceAlpha" type="matrix" values="0 0 0 0 0 0 0 0 0 0 0 0 0 0 0 0 0 0 127 0" result="hardAlpha"/>
<feOffset dy="4"/>
<feGaussianBlur stdDeviation="2"/>
<feComposite in2="hardAlpha" operator="out"/>
<feColorMatrix type="matrix" values="0 0 0 0 0 0 0 0 0 0 0 0 0 0 0 0 0 0 0.25 0"/>
<feBlend mode="normal" in2="BackgroundImageFix" result="effect1_dropShadow_133_167"/>
<feBlend mode="normal" in="SourceGraphic" in2="effect1_dropShadow_133_167" result="shape"/>
</filter>
</defs>
</svg>
