<svg width="1080" height="608" viewBox="0 0 1080 608" fill="none" xmlns="http://www.w3.org/2000/svg">
<rect width="1080" height="607.31" fill="#242424"/>
<g filter="url(#filter0_d_131_157)">
<rect x="397" y="235" width="286" height="138" rx="30" fill="#EDC256"/>
</g>
<g filter="url(#filter1_d_131_157)">
<path d="M438.6 314.6C439.867 315.6 442.033 316.967 445.1 318.7C448.233 320.433 451.2 321.3 454 321.3C456.867 321.3 458.3 320.2 458.3 318C458.3 317 457.9 316.133 457.1 315.4C456.3 314.6 454.833 313.7 452.7 312.7C450.567 311.7 448.967 310.933 447.9 310.4C446.833 309.8 445.4 308.867 443.6 307.6C441.867 306.267 440.533 304.9 439.6 303.5C436.933 299.7 435.6 294.867 435.6 289C435.6 283.133 437.767 278.2 442.1 274.2C446.5 270.133 452.233 268.1 459.3 268.1C464.1 268.1 468.533 268.633 472.6 269.7C476.667 270.7 478.767 272.033 478.9 273.7C478.9 273.9 478.9 274.1 478.9 274.3C478.9 276.633 478.167 279.6 476.7 283.2C475.233 286.733 474.2 288.7 473.6 289.1C469.333 286.9 465.5 285.8 462.1 285.8C458.767 285.8 457.1 287 457.1 289.4C457.1 290.867 458.333 292.167 460.8 293.3C461.333 293.567 462.1 293.933 463.1 294.4C464.1 294.867 465.233 295.433 466.5 296.1C467.833 296.7 469.233 297.5 470.7 298.5C472.233 299.433 473.867 300.7 475.6 302.3C479.133 305.633 480.9 310.033 480.9 315.5C480.9 322.633 478.933 328.467 475 333C471.067 337.533 465 339.867 456.8 340C452.8 340 449.167 339.667 445.9 339C442.7 338.333 439.9 337.033 437.5 335.1C435.1 333.167 433.9 330.833 433.9 328.1C433.9 325.367 434.4 322.667 435.4 320C436.4 317.267 437.467 315.467 438.6 314.6ZM511.625 338.4C511.625 339.2 508.825 339.6 503.225 339.6C496.558 339.333 493.225 338.9 493.225 338.3V302.9H488.125C486.792 302.9 486.125 300.6 486.125 296C486.125 294.8 486.225 293.333 486.425 291.6C486.692 289.867 487.192 289 487.925 289H493.225V280.2C493.225 278.867 496.025 278.2 501.625 278.2C507.292 278.2 510.125 278.733 510.125 279.8V286.2L510.225 289H518.725C519.858 289 520.425 291.333 520.425 296C520.425 300.667 519.858 303 518.725 303H511.625V338.4ZM531.741 302.7C529.875 299.367 528.941 296.667 528.941 294.6C528.941 292.467 529.508 291.1 530.641 290.5C534.441 288.833 539.641 288 546.241 288C552.908 288 557.608 289.567 560.341 292.7C563.075 295.767 564.441 300.333 564.441 306.4V322.2H567.841C568.975 322.2 569.841 322.867 570.441 324.2C571.108 325.533 571.441 327.367 571.441 329.7C571.441 332.033 570.841 334.333 569.641 336.6C568.508 338.867 566.941 340 564.941 340C561.341 340 558.441 339.033 556.241 337.1C555.241 336.3 554.475 335.333 553.941 334.2C550.875 338.067 546.108 340 539.641 340C534.775 340 530.675 338.267 527.341 334.8C524.008 331.333 522.341 327.233 522.341 322.5C522.341 311.633 528.841 306.2 541.841 306.2H547.341V305.2C547.341 303.467 547.041 302.367 546.441 301.9C545.908 301.367 544.608 301.1 542.541 301.1C540.008 301.1 536.408 301.633 531.741 302.7ZM539.741 321.1C539.741 322.567 540.141 323.7 540.941 324.5C541.741 325.233 542.741 325.6 543.941 325.6C545.208 325.6 546.341 325.1 547.341 324.1V316.4H544.541C541.341 316.4 539.741 317.967 539.741 321.1ZM599.002 338.9C599.002 339.367 595.968 339.6 589.902 339.6C583.835 339.467 580.802 339.2 580.802 338.8V305.6H578.102C577.035 305.6 576.168 304.967 575.502 303.7C574.902 302.367 574.602 300.733 574.602 298.8C574.602 291.6 576.735 288 581.002 288C584.002 288 586.502 288.933 588.502 290.8C590.502 292.6 591.502 294.667 591.502 297C592.902 294.267 594.768 292.1 597.102 290.5C599.502 288.833 601.935 288 604.402 288C608.268 288 610.602 289 611.402 291C611.602 291.533 611.702 292.333 611.702 293.4C611.702 294.4 611.368 296.233 610.702 298.9C610.102 301.567 609.468 303.5 608.802 304.7C608.135 305.9 607.735 306.5 607.602 306.5C607.468 306.5 606.835 306.267 605.702 305.8C604.635 305.267 603.668 305 602.802 305C600.268 305 599.002 307 599.002 311V338.9ZM639.75 338.4C639.75 339.2 636.95 339.6 631.35 339.6C624.683 339.333 621.35 338.9 621.35 338.3V302.9H616.25C614.917 302.9 614.25 300.6 614.25 296C614.25 294.8 614.35 293.333 614.55 291.6C614.817 289.867 615.317 289 616.05 289H621.35V280.2C621.35 278.867 624.15 278.2 629.75 278.2C635.417 278.2 638.25 278.733 638.25 279.8V286.2L638.35 289H646.85C647.983 289 648.55 291.333 648.55 296C648.55 300.667 647.983 303 646.85 303H639.75V338.4Z" fill="white"/>
</g>
<defs>
<filter id="filter0_d_131_157" x="393" y="235" width="294" height="146" filterUnits="userSpaceOnUse" color-interpolation-filters="sRGB">
<feFlood flood-opacity="0" result="BackgroundImageFix"/>
<feColorMatrix in="SourceAlpha" type="matrix" values="0 0 0 0 0 0 0 0 0 0 0 0 0 0 0 0 0 0 127 0" result="hardAlpha"/>
<feOffset dy="4"/>
<feGaussianBlur stdDeviation="2"/>
<feComposite in2="hardAlpha" operator="out"/>
<feColorMatrix type="matrix" values="0 0 0 0 0 0 0 0 0 0 0 0 0 0 0 0 0 0 0.25 0"/>
<feBlend mode="normal" in2="BackgroundImageFix" result="effect1_dropShadow_131_157"/>
<feBlend mode="normal" in="SourceGraphic" in2="effect1_dropShadow_131_157" result="shape"/>
</filter>
<filter id="filter1_d_131_157" x="429.9" y="268.1" width="222.65" height="79.9" filterUnits="userSpaceOnUse" color-interpolation-filters="sRGB">
<feFlood flood-opacity="0" result="BackgroundImageFix"/>
<feColorMatrix in="SourceAlpha" type="matrix" values="0 0 0 0 0 0 0 0 0 0 0 0 0 0 0 0 0 0 127 0" result="hardAlpha"/>
<feOffset dy="4"/>
<feGaussianBlur stdDeviation="2"/>
<feComposite in2="hardAlpha" operator="out"/>
<feColorMatrix type="matrix" values="0 0 0 0 0 0 0 0 0 0 0 0 0 0 0 0 0 0 0.25 0"/>
<feBlend mode="normal" in2="BackgroundImageFix" result="effect1_dropShadow_131_157"/>
<feBlend mode="normal" in="SourceGraphic" in2="effect1_dropShadow_131_157" result="shape"/>
</filter>
</defs>
</svg>
